<svg width="50" height="50" viewBox="0 0 50 50" fill="none" xmlns="http://www.w3.org/2000/svg">
<path id="Vector" d="M49.36 25.0382C49.36 11.4081 38.3092 0.356689 24.68 0.356689C11.0509 0.356689 0 11.4081 0 25.0382C0 37.3554 9.02747 47.5678 20.8227 49.4154V32.1714H14.5563V25.0382H20.8227V19.6039C20.8227 13.4183 24.504 10.0006 30.1411 10.0006C32.8413 10.0006 35.6632 10.4811 35.6632 10.4811V16.5515H32.5503C29.4847 16.5515 28.5306 18.4532 28.5306 20.4023V25.0316H35.3722L34.2759 32.1648H28.5238V49.4088C40.319 47.5544 49.3465 37.3488 49.3465 25.0316L49.36 25.0382Z" fill="#00354D"/>
</svg>
