<svg width="110" height="184" viewBox="0 0 110 184" fill="none" xmlns="http://www.w3.org/2000/svg">
<g id="Frame" clip-path="url(#clip0_1_888)">
<path id="Vector" d="M113.17 0.690001V182.83C52.49 190.17 2.12002 144.69 0.0700185 95.95C-2.08998 44.8 49.15 -6.57 113.17 0.690001Z" fill="#E3194A"/>
<path id="Vector_2" d="M72.35 50.76C72.36 54.92 68.96 58.33 64.8 58.34C60.66 58.34 57.24 54.92 57.24 50.77C57.24 46.68 60.62 43.3 64.73 43.27C68.91 43.24 72.34 46.61 72.35 50.76ZM96.99 59.9C90.9 60.39 84.82 60.88 78.74 61.43C70.34 62.2 61.96 62.42 53.55 61.59C47.15 60.96 40.74 60.48 34.33 59.94C32.17 59.76 30.32 61.25 30.05 63.36C29.78 65.48 31.21 67.31 33.42 67.61C39.91 68.5 46.4 69.4 52.89 70.24C53.85 70.36 54.16 70.67 54.15 71.66C54.11 78.61 54.13 85.57 54.12 92.52C54.12 93.04 54.06 93.57 53.93 94.07C50.88 105.63 47.83 117.19 44.76 128.74C44.03 131.49 45.24 133.84 47.79 134.56C50.22 135.24 52.26 133.97 53.09 131.27C56.22 121 59.35 110.72 62.48 100.44C63.12 98.34 63.12 98.41 65.27 98.32C66.32 98.27 66.7 98.66 67.02 99.61C70.56 110.22 74.17 120.81 77.73 131.41C78.2 132.82 79.04 133.82 80.45 134.27C82.04 134.79 83.51 134.47 84.72 133.32C86.1 132.02 86.32 130.43 85.78 128.64C82.3 117.08 78.83 105.51 75.36 93.95C75.18 93.36 75.07 92.78 75.07 92.17C75.07 85.34 75.07 78.51 75.02 71.68C75.02 70.72 75.28 70.36 76.26 70.25C83.45 69.39 90.62 68.48 97.8 67.57C99.76 67.32 101.16 65.72 101.18 63.75C101.19 61.46 99.31 59.7 96.99 59.89V59.9Z" fill="white"/>
</g>
<defs>
<clipPath id="clip0_1_888">
<rect width="113.17" height="183.61" fill="white"/>
</clipPath>
</defs>
</svg>
