<svg width="248" height="80" viewBox="0 0 248 80" fill="none" xmlns="http://www.w3.org/2000/svg">
<g id="HoW Logo">
<path id="Vector" d="M78.3856 39.9953C78.3856 61.3679 61.0654 78.6881 39.6928 78.6881C18.3202 78.6881 1 61.3679 1 39.9953C1 18.6227 18.3202 1.30249 39.6928 1.30249C61.0654 1.30249 78.3856 18.6227 78.3856 39.9953Z" fill="#06BFD8" stroke="white" stroke-width="2" stroke-miterlimit="10"/>
<path id="Vector_2" d="M10.0446 23.1497L31.5216 65.4489L39.5316 49.6661L26.074 23.1497H10.0446Z" fill="#8EC73F"/>
<path id="Vector_3" d="M69.0184 23.1497H52.989L39.5314 49.6661L47.5509 65.4489L69.0184 23.1497Z" fill="#ED1558"/>
<path id="Vector_4" d="M26.074 23.1497L39.5315 49.6661L52.9891 23.1497H26.074Z" fill="#F7B140"/>
<path id="Vector_5" d="M47.6648 35.0887L53.3876 23.8045H67.9556L47.5415 64.0063L40.2623 49.6661L47.6648 35.0887ZM31.512 64.0063L11.0979 23.8045H25.6658L38.8007 49.6661L31.5215 64.0063H31.512ZM51.9261 23.8045L46.6209 34.2441L39.522 48.2236L27.1274 23.8045H51.9261ZM70.0814 22.4948H8.97205L31.512 66.8914L39.522 51.1087L47.532 66.8914L70.0719 22.4948H70.0814Z" fill="white"/>
<path id="Vector_6" d="M90.0874 11.6756H91.6154V14.4184H94.4246V11.6756H95.9525V18.6132H94.4246V15.8229H91.6154V18.6132H90.0874V11.6756Z" fill="black"/>
<path id="Vector_7" d="M98.9231 11.6756H104.143V13.0327H100.432V14.4373H103.697V15.7945H100.432V17.256H104.19V18.6132H98.9231V11.6756Z" fill="black"/>
<path id="Vector_8" d="M110.843 15.7091L109.923 13.4598L109.002 15.7091H110.843ZM109.239 11.6282H110.644L113.614 18.6132H112.02L111.384 17.0567H108.452L107.816 18.6132H106.259L109.23 11.6282H109.239Z" fill="black"/>
<path id="Vector_9" d="M119.062 15.0447C119.442 15.0447 119.726 14.9593 119.926 14.779C120.125 14.5987 120.229 14.3614 120.229 14.0672V14.0482C120.229 13.7161 120.125 13.4693 119.916 13.308C119.707 13.1466 119.413 13.0612 119.033 13.0612H117.515V15.0542H119.062V15.0447ZM115.997 11.6756H119.166C120.039 11.6756 120.723 11.9129 121.188 12.3779C121.586 12.7765 121.786 13.2985 121.786 13.9628V13.9818C121.786 14.5417 121.653 14.9973 121.378 15.3484C121.102 15.6996 120.742 15.9653 120.305 16.1266L121.995 18.6037H120.21L118.73 16.3829H117.534V18.6037H116.006V11.6756H115.997Z" fill="black"/>
<path id="Vector_10" d="M126.075 13.0802H123.969V11.6756H129.71V13.0802H127.603V18.6132H126.075V13.0802Z" fill="black"/>
<path id="Vector_11" d="M139.846 17.3225C140.15 17.3225 140.435 17.2655 140.691 17.1516C140.947 17.0378 141.165 16.8859 141.346 16.6866C141.526 16.4873 141.668 16.2595 141.773 15.9938C141.877 15.7376 141.925 15.4528 141.925 15.1586V15.1397C141.925 14.8455 141.877 14.5607 141.773 14.295C141.668 14.0293 141.526 13.8015 141.336 13.6022C141.146 13.4029 140.928 13.251 140.672 13.1277C140.416 13.0138 140.131 12.9568 139.827 12.9568C139.523 12.9568 139.239 13.0138 138.983 13.1277C138.726 13.2416 138.508 13.3934 138.328 13.5927C138.147 13.792 138.005 14.0198 137.901 14.2855C137.796 14.5418 137.749 14.8265 137.749 15.1207V15.1397C137.749 15.4339 137.796 15.7186 137.901 15.9843C138.005 16.25 138.147 16.4778 138.337 16.6771C138.527 16.8764 138.745 17.0283 139.002 17.1516C139.258 17.2655 139.542 17.3225 139.846 17.3225ZM139.827 18.7271C139.296 18.7271 138.802 18.6322 138.356 18.4424C137.91 18.2525 137.521 17.9963 137.189 17.6831C136.866 17.3604 136.61 16.9903 136.43 16.5537C136.249 16.1172 136.154 15.6616 136.154 15.1586V15.1397C136.154 14.6462 136.249 14.1811 136.43 13.7446C136.619 13.308 136.866 12.9284 137.198 12.6057C137.521 12.283 137.91 12.0173 138.366 11.837C138.821 11.6472 139.315 11.5522 139.846 11.5522C140.378 11.5522 140.871 11.6472 141.317 11.837C141.763 12.0268 142.152 12.283 142.485 12.5962C142.807 12.9189 143.063 13.289 143.244 13.7256C143.424 14.1621 143.519 14.6177 143.519 15.1207V15.1397C143.519 15.6332 143.424 16.0982 143.244 16.5348C143.063 16.9713 142.807 17.3509 142.475 17.6736C142.152 17.9963 141.763 18.262 141.308 18.4424C140.852 18.6322 140.359 18.7271 139.827 18.7271Z" fill="black"/>
<path id="Vector_12" d="M146.186 11.6756H151.463V13.0517H147.714V14.5512H151.016V15.9273H147.714V18.6132H146.186V11.6756Z" fill="black"/>
<path id="Vector_13" d="M89.8881 30.6281H92.3936L94.5859 37.8125L96.968 30.5997H98.9705L101.353 37.8125L103.545 30.6281H105.984L102.368 41.3144H100.337L97.9361 34.3769L95.5445 41.3144H93.5135L89.8881 30.6281Z" fill="black"/>
<path id="Vector_14" d="M112.95 39.2741C113.415 39.2741 113.842 39.1886 114.241 39.0178C114.639 38.847 114.972 38.6097 115.247 38.306C115.522 38.0023 115.74 37.6512 115.902 37.2526C116.053 36.854 116.139 36.4269 116.139 35.9714V35.9429C116.139 35.4873 116.063 35.0603 115.902 34.6522C115.74 34.2441 115.522 33.8929 115.237 33.5892C114.953 33.2855 114.611 33.0483 114.212 32.868C113.814 32.6876 113.387 32.6022 112.922 32.6022C112.457 32.6022 112.01 32.6876 111.621 32.8585C111.232 33.0293 110.9 33.2666 110.625 33.5703C110.35 33.874 110.131 34.2251 109.97 34.6237C109.818 35.0223 109.733 35.4494 109.733 35.9049V35.9334C109.733 36.3889 109.809 36.816 109.97 37.2241C110.131 37.6322 110.35 37.9833 110.634 38.287C110.919 38.5907 111.261 38.828 111.65 39.0083C112.039 39.1886 112.466 39.2741 112.95 39.2741ZM112.922 41.4284C112.105 41.4284 111.346 41.286 110.663 40.9918C109.98 40.7071 109.382 40.318 108.879 39.8245C108.376 39.331 107.987 38.7616 107.711 38.0972C107.436 37.4329 107.294 36.7211 107.294 35.9714V35.9429C107.294 35.1836 107.436 34.4719 107.721 33.817C108.005 33.1527 108.395 32.5737 108.898 32.0708C109.401 31.5678 109.998 31.1786 110.682 30.8844C111.375 30.5997 112.134 30.4479 112.95 30.4479C113.766 30.4479 114.525 30.5902 115.209 30.8844C115.892 31.1692 116.49 31.5583 116.993 32.0518C117.496 32.5453 117.885 33.1147 118.16 33.779C118.436 34.4434 118.578 35.1552 118.578 35.9049V35.9334C118.578 36.6926 118.436 37.4044 118.151 38.0593C117.866 38.7236 117.477 39.3025 116.974 39.8055C116.471 40.3085 115.873 40.6976 115.18 40.9918C114.488 41.2765 113.738 41.4284 112.912 41.4284H112.922Z" fill="black"/>
<path id="Vector_15" d="M126.104 35.7815C126.683 35.7815 127.119 35.6486 127.433 35.3734C127.736 35.0982 127.898 34.7375 127.898 34.282V34.2535C127.898 33.7505 127.736 33.3709 127.414 33.1147C127.091 32.8584 126.645 32.735 126.066 32.735H123.75V35.7815H126.113H126.104ZM121.406 30.6281H126.256C127.603 30.6281 128.628 30.9888 129.35 31.7006C129.957 32.308 130.261 33.1147 130.261 34.1301V34.1586C130.261 35.0128 130.052 35.7151 129.634 36.256C129.217 36.797 128.666 37.1956 127.992 37.4423L130.583 41.229H127.86L125.582 37.8314H123.75V41.229H121.416V30.6187L121.406 30.6281Z" fill="black"/>
<path id="Vector_16" d="M138.09 41.4284C137.312 41.4284 136.591 41.286 135.927 41.0013C135.262 40.7166 134.683 40.3275 134.199 39.8435C133.715 39.35 133.336 38.7711 133.06 38.1067C132.785 37.4424 132.652 36.7306 132.652 35.9714V35.9429C132.652 35.1836 132.785 34.4719 133.06 33.817C133.336 33.1527 133.715 32.5737 134.199 32.0708C134.683 31.5678 135.262 31.1786 135.946 30.8844C136.619 30.5997 137.369 30.4479 138.185 30.4479C138.679 30.4479 139.134 30.4858 139.542 30.5712C139.951 30.6567 140.321 30.7611 140.653 30.9034C140.985 31.0458 141.298 31.2166 141.573 31.4159C141.858 31.6152 142.114 31.843 142.361 32.0802L140.881 33.7885C140.463 33.4184 140.045 33.1242 139.618 32.9059C139.191 32.6971 138.707 32.5832 138.166 32.5832C137.72 32.5832 137.312 32.6687 136.933 32.8395C136.553 33.0103 136.23 33.2476 135.955 33.5513C135.68 33.855 135.471 34.2061 135.319 34.6047C135.167 35.0033 135.091 35.4304 135.091 35.8859V35.9144C135.091 36.37 135.167 36.797 135.319 37.2051C135.471 37.6132 135.68 37.9644 135.946 38.2681C136.211 38.5717 136.534 38.809 136.914 38.9893C137.293 39.1697 137.711 39.2551 138.166 39.2551C138.774 39.2551 139.286 39.1412 139.704 38.9229C140.121 38.7046 140.539 38.4009 140.957 38.0118L142.437 39.5113C142.162 39.8055 141.877 40.0712 141.592 40.299C141.298 40.5268 140.976 40.7261 140.634 40.8969C140.283 41.0678 139.903 41.1911 139.486 41.2765C139.068 41.362 138.603 41.4094 138.09 41.4094V41.4284Z" fill="black"/>
<path id="Vector_17" d="M145.066 30.6282H153.047V32.7067H147.363V34.861H152.364V36.9394H147.363V39.1697H153.123V41.2386H145.066V30.6282Z" fill="black"/>
<path id="Vector_18" d="M159.767 41.3904C158.96 41.3904 158.163 41.248 157.385 40.9728C156.606 40.6976 155.904 40.2705 155.259 39.6916L156.635 38.0403C157.119 38.4389 157.622 38.752 158.125 38.9798C158.637 39.2076 159.197 39.331 159.795 39.331C160.279 39.331 160.659 39.2455 160.925 39.0652C161.19 38.8849 161.323 38.6476 161.323 38.3345V38.306C161.323 38.1541 161.295 38.0213 161.238 37.9074C161.181 37.7935 161.076 37.6796 160.915 37.5847C160.754 37.4803 160.535 37.3854 160.26 37.281C159.985 37.1766 159.615 37.0722 159.178 36.9583C158.637 36.8255 158.153 36.6831 157.717 36.5218C157.28 36.3604 156.91 36.1611 156.606 35.9239C156.303 35.6866 156.065 35.3924 155.895 35.0413C155.724 34.6901 155.648 34.244 155.648 33.7221V33.6936C155.648 33.2096 155.743 32.773 155.923 32.3839C156.103 31.9948 156.36 31.6626 156.682 31.3779C157.005 31.0932 157.394 30.8749 157.85 30.7231C158.305 30.5712 158.799 30.4953 159.349 30.4953C160.127 30.4953 160.839 30.6092 161.494 30.8464C162.149 31.0837 162.747 31.4159 163.288 31.843L162.073 33.5987C161.598 33.276 161.133 33.0198 160.678 32.83C160.222 32.6402 159.767 32.5452 159.311 32.5452C158.856 32.5452 158.514 32.6307 158.286 32.811C158.058 32.9913 157.944 33.2096 157.944 33.4658V33.4943C157.944 33.6651 157.973 33.817 158.039 33.9404C158.106 34.0637 158.22 34.1776 158.4 34.282C158.571 34.3864 158.808 34.4813 159.102 34.5667C159.397 34.6616 159.776 34.766 160.232 34.8894C160.773 35.0318 161.247 35.1931 161.665 35.3639C162.082 35.5442 162.443 35.753 162.728 35.9998C163.012 36.2465 163.231 36.5407 163.383 36.8729C163.525 37.2051 163.601 37.6037 163.601 38.0687V38.0972C163.601 38.6192 163.506 39.0937 163.316 39.5018C163.126 39.9099 162.861 40.2515 162.519 40.5363C162.177 40.8115 161.769 41.0298 161.295 41.1721C160.82 41.3145 160.298 41.3904 159.719 41.3904H159.767Z" fill="black"/>
<path id="Vector_19" d="M168.897 32.7826H165.67V30.6282H174.468V32.7826H171.231V41.2386H168.897V32.7826Z" fill="black"/>
<path id="Vector_20" d="M177.011 30.6282H184.992V32.7067H179.317V34.861H184.319V36.9394H179.317V39.1697H185.068V41.2386H177.011V30.6282Z" fill="black"/>
<path id="Vector_21" d="M192.623 35.7815C193.202 35.7815 193.638 35.6486 193.952 35.3734C194.255 35.0982 194.417 34.7375 194.417 34.282V34.2535C194.417 33.7505 194.255 33.3709 193.933 33.1147C193.61 32.8584 193.164 32.735 192.585 32.735H190.269V35.7815H192.632H192.623ZM187.925 30.6281H192.775C194.122 30.6281 195.147 30.9888 195.869 31.7006C196.476 32.308 196.78 33.1147 196.78 34.1301V34.1586C196.78 35.0128 196.571 35.7151 196.153 36.256C195.736 36.797 195.185 37.1956 194.512 37.4423L197.102 41.229H194.369L192.101 37.8314H190.269V41.229H187.935V30.6187L187.925 30.6281Z" fill="black"/>
<path id="Vector_22" d="M203.423 41.3904C202.616 41.3904 201.819 41.248 201.041 40.9728C200.263 40.6976 199.551 40.2705 198.915 39.6916L200.291 38.0403C200.775 38.4389 201.278 38.752 201.781 38.9798C202.294 39.2076 202.854 39.331 203.452 39.331C203.936 39.331 204.315 39.2455 204.581 39.0652C204.847 38.8849 204.979 38.6476 204.979 38.3345V38.306C204.979 38.1541 204.951 38.0213 204.894 37.9074C204.837 37.7935 204.733 37.6796 204.571 37.5847C204.41 37.4803 204.201 37.3854 203.917 37.281C203.641 37.1766 203.271 37.0722 202.835 36.9583C202.294 36.8255 201.81 36.6831 201.373 36.5218C200.937 36.3604 200.566 36.1611 200.263 35.9239C199.959 35.6866 199.722 35.3924 199.551 35.0413C199.38 34.6901 199.304 34.244 199.304 33.7221V33.6936C199.304 33.2096 199.399 32.773 199.579 32.3839C199.76 31.9948 200.016 31.6626 200.339 31.3779C200.661 31.0932 201.05 30.8749 201.506 30.7231C201.962 30.5712 202.455 30.4953 203.005 30.4953C203.784 30.4953 204.495 30.6092 205.15 30.8464C205.805 31.0837 206.403 31.4159 206.944 31.843L205.729 33.5987C205.255 33.276 204.79 33.0198 204.334 32.83C203.879 32.6402 203.423 32.5452 202.967 32.5452C202.512 32.5452 202.17 32.6307 201.943 32.811C201.715 32.9913 201.601 33.2096 201.601 33.4658V33.4943C201.601 33.6651 201.629 33.817 201.696 33.9404C201.762 34.0637 201.876 34.1776 202.056 34.282C202.227 34.3864 202.464 34.4813 202.759 34.5667C203.053 34.6616 203.433 34.766 203.888 34.8894C204.429 35.0318 204.904 35.1931 205.321 35.3639C205.739 35.5442 206.099 35.753 206.384 35.9998C206.669 36.2465 206.887 36.5407 207.039 36.8729C207.191 37.2051 207.257 37.6037 207.257 38.0687V38.0972C207.257 38.6192 207.162 39.0937 206.972 39.5018C206.783 39.9099 206.517 40.2515 206.175 40.5363C205.834 40.8115 205.426 41.0298 204.951 41.1721C204.476 41.3145 203.955 41.3904 203.376 41.3904H203.423Z" fill="black"/>
<path id="Vector_23" d="M210.095 30.6282H212.43V34.8325H216.729V30.6282H219.063V41.2386H216.729V36.9869H212.43V41.2386H210.095V30.6282Z" fill="black"/>
<path id="Vector_24" d="M222.48 30.6282H224.815V41.2386H222.48V30.6282Z" fill="black"/>
<path id="Vector_25" d="M232.92 35.7815C233.498 35.7815 233.935 35.6486 234.248 35.3734C234.552 35.0982 234.713 34.7375 234.713 34.282V34.2535C234.713 33.7505 234.552 33.3709 234.229 33.1147C233.907 32.8584 233.461 32.735 232.882 32.735H230.566V35.7815H232.929H232.92ZM228.222 30.6281H233.071C234.419 30.6281 235.444 30.9888 236.165 31.7006C236.773 32.308 237.076 33.1147 237.076 34.1301V34.1586C237.076 35.0128 236.868 35.7151 236.45 36.256C236.032 36.797 235.482 37.1956 234.808 37.4423L237.399 41.229H234.675L232.398 37.8314H230.566V41.229H228.231V30.6187L228.222 30.6281Z" fill="black"/>
<path id="Vector_26" d="M239.933 30.6282H247.924V32.7067H242.239V34.861H247.241V36.9394H242.239V39.1697H248V41.2386H239.933V30.6282Z" fill="black"/>
<path id="Vector_27" d="M95.5064 58.5398C94.7282 58.5398 94.0069 58.3974 93.3426 58.1127C92.6783 57.828 92.0993 57.4389 91.6153 56.9548C91.1313 56.4613 90.7517 55.8824 90.4765 55.2181C90.2012 54.5537 90.0684 53.8419 90.0684 53.0827V53.0542C90.0684 52.295 90.2012 51.5832 90.4765 50.9284C90.7517 50.264 91.1313 49.6851 91.6153 49.1821C92.0993 48.6791 92.6783 48.29 93.3616 47.9958C94.0354 47.7111 94.7851 47.5687 95.6013 47.5687C96.0948 47.5687 96.5504 47.6067 96.9585 47.6921C97.3666 47.7775 97.7367 47.8819 98.0689 48.0243C98.401 48.1666 98.7142 48.3375 98.9894 48.5368C99.2742 48.7361 99.5304 48.9638 99.7772 49.2011L98.2966 50.9094C97.879 50.5393 97.4615 50.245 97.0344 50.0268C96.6073 49.818 96.1233 49.7136 95.5918 49.7136C95.1458 49.7136 94.7377 49.799 94.3581 49.9698C93.9785 50.1407 93.6558 50.3779 93.3805 50.6816C93.1053 50.9853 92.8965 51.3365 92.7447 51.7351C92.5928 52.1337 92.5169 52.5607 92.5169 53.0163V53.0447C92.5169 53.5003 92.5928 53.9274 92.7447 54.3355C92.8965 54.7435 93.1053 55.0947 93.3711 55.3984C93.6368 55.7021 93.9595 55.9394 94.3391 56.1197C94.7187 56.3 95.1363 56.3854 95.5918 56.3854C96.1992 56.3854 96.7117 56.2715 97.1293 56.0532C97.5469 55.835 97.9645 55.5313 98.382 55.1421L99.8626 56.6416C99.5873 56.9359 99.3026 57.2016 99.0084 57.4294C98.7142 57.6666 98.3915 57.8659 98.0499 58.0273C97.6987 58.1981 97.3191 58.3215 96.9015 58.4069C96.4839 58.4923 96.0189 58.5398 95.5064 58.5398Z" fill="black"/>
<path id="Vector_28" d="M107.664 56.3854C108.129 56.3854 108.556 56.3 108.955 56.1291C109.353 55.9583 109.685 55.721 109.961 55.4173C110.236 55.1136 110.454 54.7625 110.615 54.3639C110.767 53.9653 110.853 53.5382 110.853 53.0827V53.0542C110.853 52.5987 110.777 52.1716 110.615 51.7635C110.454 51.3554 110.236 51.0043 109.951 50.7006C109.666 50.3969 109.325 50.1596 108.926 49.9793C108.527 49.799 108.1 49.7136 107.635 49.7136C107.17 49.7136 106.724 49.799 106.335 49.9698C105.946 50.1406 105.614 50.3779 105.339 50.6816C105.063 50.9853 104.845 51.3364 104.684 51.735C104.522 52.1336 104.447 52.5607 104.447 53.0162V53.0447C104.447 53.5003 104.522 53.9273 104.684 54.3354C104.836 54.7435 105.063 55.0947 105.348 55.3984C105.633 55.7021 105.975 55.9393 106.364 56.1196C106.753 56.3 107.18 56.3854 107.664 56.3854ZM107.635 58.5397C106.819 58.5397 106.06 58.3974 105.377 58.1126C104.693 57.8279 104.095 57.4388 103.592 56.9453C103.089 56.4518 102.7 55.8824 102.425 55.218C102.15 54.5537 102.008 53.8419 102.008 53.0922V53.0637C102.008 52.3045 102.15 51.5927 102.435 50.9378C102.719 50.2735 103.108 49.6946 103.611 49.1916C104.114 48.6886 104.712 48.2995 105.396 48.0053C106.088 47.7205 106.838 47.5782 107.664 47.5782C108.49 47.5782 109.23 47.7205 109.923 48.0053C110.606 48.29 111.204 48.6791 111.707 49.1726C112.21 49.6661 112.599 50.2355 112.874 50.8999C113.149 51.5642 113.292 52.276 113.292 53.0257V53.0542C113.292 53.8134 113.149 54.5252 112.865 55.1801C112.58 55.8444 112.191 56.4233 111.688 56.9263C111.185 57.4293 110.587 57.8184 109.904 58.1126C109.211 58.3974 108.461 58.5397 107.635 58.5397Z" fill="black"/>
<path id="Vector_29" d="M116.12 47.7491H118.445V56.2526H123.741V58.3595H116.12V47.7491Z" fill="black"/>
<path id="Vector_30" d="M126.256 47.7491H128.59V56.2526H133.877V58.3595H126.256V47.7491Z" fill="black"/>
<path id="Vector_31" d="M136.392 47.7491H144.383V49.8275H138.698V51.9724H143.699V54.0508H138.698V56.281H144.459V58.3595H136.392V47.7491Z" fill="black"/>
<path id="Vector_32" d="M152.412 58.5398C151.586 58.5398 150.827 58.4069 150.143 58.1317C149.46 57.8564 148.872 57.4768 148.388 56.9928C147.894 56.5088 147.514 55.9299 147.239 55.2655C146.964 54.6012 146.831 53.8704 146.831 53.0827V53.0542C146.831 52.295 146.974 51.5832 147.249 50.9284C147.524 50.264 147.913 49.6851 148.407 49.1821C148.9 48.6791 149.489 48.29 150.162 47.9958C150.836 47.7016 151.586 47.5687 152.393 47.5687C152.867 47.5687 153.304 47.5972 153.693 47.6636C154.082 47.7301 154.443 47.825 154.775 47.9483C155.107 48.0717 155.42 48.2236 155.714 48.4039C156.008 48.5842 156.293 48.793 156.559 49.0208L155.088 50.7955C154.889 50.6247 154.68 50.4728 154.481 50.34C154.281 50.2071 154.072 50.0932 153.854 50.0078C153.636 49.9129 153.399 49.8464 153.152 49.799C152.896 49.7515 152.62 49.7231 152.317 49.7231C151.89 49.7231 151.501 49.8085 151.13 49.9888C150.76 50.1691 150.438 50.4064 150.162 50.7006C149.887 51.0043 149.669 51.3459 149.507 51.7446C149.356 52.1432 149.27 52.5702 149.27 53.0258V53.0542C149.27 53.5383 149.346 53.9843 149.507 54.4019C149.669 54.81 149.887 55.1706 150.172 55.4743C150.457 55.778 150.798 56.0153 151.187 56.1766C151.576 56.3474 152.013 56.4234 152.488 56.4234C153.361 56.4234 154.091 56.2146 154.689 55.778V54.25H152.345V52.2381H156.948V56.8409C156.407 57.306 155.752 57.7046 155.003 58.0273C154.253 58.3594 153.389 58.5208 152.421 58.5208L152.412 58.5398Z" fill="black"/>
<path id="Vector_33" d="M159.947 47.7491H167.929V49.8275H162.244V51.9724H167.245V54.0508H162.244V56.281H168.004V58.3595H159.947V47.7491Z" fill="black"/>
<path id="Vector_34" d="M248 24.1367H89.4895V22.827H248V24.1367Z" fill="black"/>
<path id="Vector_35" d="M248 66.0752H89.4895V64.7655H248V66.0752Z" fill="black"/>
</g>
</svg>
