<svg width="50" height="50" viewBox="0 0 50 50" fill="none" xmlns="http://www.w3.org/2000/svg">
<path id="Vector" d="M29.9101 24.9775C29.9101 27.8335 27.5889 30.1547 24.7332 30.1547C21.8774 30.1547 19.5495 27.8335 19.5495 24.9775C19.5495 22.1215 21.8706 19.7934 24.7332 19.7934C27.5957 19.7934 29.9101 22.1148 29.9101 24.9775ZM37.469 24.9775C37.469 29.1261 37.4555 29.62 37.3743 31.2578C37.3067 32.7737 37.0495 33.5928 36.8397 34.141C36.5555 34.8651 36.2239 35.3863 35.6758 35.9277C35.1344 36.4691 34.6133 36.8073 33.8892 37.0916C33.3411 37.3014 32.5155 37.5586 31.0064 37.6263C29.3687 37.7007 28.8815 37.7211 24.7264 37.7211C20.5714 37.7211 20.0841 37.7007 18.4464 37.6263C16.9306 37.5586 16.1117 37.3014 15.5636 37.0916C14.8395 36.8073 14.3185 36.4691 13.7771 35.9277C13.2357 35.3863 12.8973 34.8651 12.6131 34.141C12.3965 33.5928 12.1462 32.767 12.0785 31.2578C12.0041 29.62 11.9905 29.1261 11.9905 24.9775C11.9905 20.8289 12.0041 20.3347 12.0785 18.6969C12.1462 17.181 12.4033 16.3622 12.6131 15.814C12.8973 15.0899 13.2289 14.5687 13.7771 14.0273C14.3252 13.4859 14.8395 13.1477 15.5636 12.8634C16.1117 12.6536 16.9373 12.3964 18.4464 12.3288C20.0909 12.2543 20.5781 12.2339 24.7264 12.2339C28.8747 12.2339 29.3687 12.2543 31.0064 12.3288C32.5222 12.3964 33.3411 12.6536 33.8892 12.8634C34.6201 13.1477 35.1344 13.4859 35.6758 14.0273C36.2171 14.5687 36.5555 15.0899 36.8397 15.814C37.0495 16.3622 37.3067 17.1877 37.3743 18.6969C37.4488 20.3347 37.469 20.8289 37.469 24.9775ZM32.7117 24.9775C32.7117 20.565 29.1386 16.9984 24.7332 16.9984C20.3277 16.9984 16.7546 20.5718 16.7546 24.9775C16.7546 29.3833 20.3277 32.9566 24.7332 32.9566C29.1386 32.9566 32.7117 29.3833 32.7117 24.9775ZM34.8907 16.6802C34.8907 15.6515 34.0584 14.8124 33.023 14.8124C31.9876 14.8124 31.1553 15.6447 31.1553 16.6802C31.1553 17.7156 31.9944 18.5482 33.023 18.5482C34.0516 18.5482 34.8907 17.7156 34.8907 16.6802ZM49.4132 24.9775C49.4132 38.6076 38.3623 49.659 24.7332 49.659C11.104 49.659 0.0531616 38.6076 0.0531616 24.9775C0.0531616 11.3474 11.104 0.295654 24.7332 0.295654C38.3623 0.295654 49.4132 11.3474 49.4132 24.9775ZM40.2707 24.9775C40.2707 20.7545 40.2504 20.2265 40.1759 18.5684C40.1015 16.9171 39.8376 15.787 39.4586 14.7989C39.0593 13.777 38.5315 12.9108 37.6653 12.0446C36.7991 11.1851 35.9329 10.6502 34.9178 10.2509C33.9298 9.86512 32.7997 9.6013 31.1417 9.52685C29.4838 9.45241 28.9559 9.43201 24.7332 9.43201C20.5104 9.43201 19.9826 9.44564 18.3246 9.52685C16.6734 9.6013 15.5433 9.86512 14.5553 10.2509C13.5334 10.6434 12.6672 11.1783 11.801 12.0446C10.9348 12.9108 10.407 13.777 10.0077 14.7989C9.62201 15.787 9.35808 16.9171 9.28364 18.5684C9.20921 20.2265 9.18889 20.7545 9.18889 24.9775C9.18889 29.2005 9.20921 29.7282 9.28364 31.3863C9.35808 33.0376 9.62201 34.168 10.0077 35.1561C10.4002 36.178 10.9348 37.0442 11.801 37.9104C12.6605 38.7767 13.5334 39.3045 14.5553 39.7038C15.5433 40.0896 16.6734 40.3537 18.3246 40.4282C19.9826 40.5026 20.5104 40.5227 24.7332 40.5227C28.9559 40.5227 29.4838 40.5026 31.1417 40.4282C32.7929 40.3537 33.9231 40.0896 34.9178 39.7038C35.9397 39.3113 36.8059 38.7767 37.6653 37.9104C38.5315 37.0509 39.0593 36.178 39.4586 35.1561C39.8443 34.168 40.1083 33.0376 40.1759 31.3863C40.2504 29.7282 40.2707 29.2005 40.2707 24.9775Z" fill="#00354D"/>
</svg>
