<svg width="50" height="50" viewBox="0 0 50 50" fill="none" xmlns="http://www.w3.org/2000/svg">
<path id="Vector" d="M24.8463 0.295654C11.2171 0.295654 0.16626 11.3474 0.16626 24.9775C0.16626 38.6076 11.2171 49.659 24.8463 49.659C38.4754 49.659 49.5263 38.6076 49.5263 24.9775C49.5263 11.3474 38.4754 0.295654 24.8463 0.295654ZM16.6985 38.4656C14.9458 38.4453 13.1863 38.4521 11.4336 38.4656C11.1494 38.4656 11.0682 38.3977 11.0682 38.1067C11.075 31.8466 11.075 25.5935 11.0682 19.3334C11.0682 19.0762 11.1291 18.9814 11.4066 18.9814C13.1931 18.995 14.9729 19.0017 16.7527 18.9814C17.0911 18.9814 17.1384 19.1099 17.1384 19.4077C17.1316 22.5209 17.1384 25.6408 17.1384 28.7539C17.1384 31.8671 17.1316 34.9326 17.1452 38.0254C17.1452 38.3706 17.064 38.4722 16.7053 38.4722L16.6985 38.4656ZM14.1067 16.3015C12.1983 16.3015 10.6081 14.7177 10.6013 12.8092C10.5945 10.8805 12.178 9.28992 14.1135 9.28992C16.0354 9.28992 17.6121 10.8669 17.6189 12.7821C17.6189 14.7177 16.0489 16.3015 14.1067 16.3015ZM39.8491 38.0595C39.8491 38.3776 39.7544 38.4587 39.4431 38.4587C37.6904 38.4451 35.931 38.4451 34.1715 38.4587C33.867 38.4587 33.7993 38.364 33.7993 38.073C33.8128 34.8313 33.8128 31.5826 33.7993 28.3409C33.7993 27.5287 33.7451 26.7167 33.515 25.9249C33.0955 24.4699 32.0533 23.7255 30.5307 23.8067C28.4464 23.915 27.3637 24.9503 27.0997 27.0686C27.0388 27.5762 27.005 28.0838 27.005 28.5913C27.005 31.7451 27.005 34.899 27.0118 38.0595C27.0118 38.3708 26.9373 38.4654 26.6125 38.4587C24.8462 38.4451 23.0733 38.4451 21.307 38.4587C21.0228 38.4587 20.9416 38.3844 20.9416 38.1001C20.9483 31.8536 20.9483 25.6067 20.9416 19.3601C20.9416 19.0488 21.0431 18.9814 21.3341 18.9814C23.0191 18.995 24.6906 18.995 26.3756 18.9814C26.6802 18.9814 26.7614 19.0827 26.7546 19.3737C26.7343 20.1181 26.7546 20.8626 26.7546 21.6138C27.1539 21.1604 27.4923 20.6936 27.9118 20.3079C29.1908 19.1032 30.7067 18.494 32.4729 18.5076C33.4474 18.5143 34.4083 18.5819 35.3422 18.8526C37.4874 19.4752 38.7258 20.9508 39.3213 23.042C39.768 24.6121 39.8491 26.2227 39.8491 27.8402C39.8559 31.2511 39.8424 34.6621 39.8491 38.073V38.0595Z" fill="#00354D"/>
</svg>
