<svg width="50" height="50" viewBox="0 0 50 50" fill="none" xmlns="http://www.w3.org/2000/svg">
<path id="Vector" d="M24.9526 0.295654C11.3234 0.295654 0.272583 11.3474 0.272583 24.9775C0.272583 38.6076 11.3234 49.659 24.9526 49.659C38.5817 49.659 49.6326 38.6076 49.6326 24.9775C49.6326 11.3474 38.5817 0.295654 24.9526 0.295654ZM38.5141 22.1554C37.5938 22.1554 36.6869 22.0335 35.7937 21.8237C34.2575 21.4717 32.8296 20.8493 31.5167 19.983C31.4491 19.9424 31.3747 19.8408 31.3002 19.8747C31.2055 19.9153 31.2596 20.0372 31.2596 20.1251C31.2596 23.6646 31.2732 27.2041 31.2529 30.7436C31.2394 33.2205 30.4543 35.4336 28.8302 37.315C27.1113 39.3182 24.9188 40.4822 22.2998 40.8003C20.2764 41.0507 18.3613 40.6852 16.5342 39.7851C16.2432 39.6362 15.959 39.4672 15.695 39.2709C15.6138 39.1965 15.5259 39.1218 15.4447 39.0541C15.2416 38.9662 15.086 38.8242 14.9236 38.6956C13.2994 37.4097 12.149 35.7787 11.5197 33.8026C11.3031 33.1123 11.1678 32.4085 11.1001 31.6844C11.046 31.1633 11.046 30.6353 11.0798 30.121C11.1542 28.9231 11.4385 27.7726 11.9392 26.6694C12.4536 25.5257 13.1573 24.5038 14.0574 23.624C15.1063 22.5953 16.3109 21.8306 17.6981 21.3366C18.5644 21.0253 19.4508 20.8355 20.3712 20.7679C21.0343 20.7137 21.6975 20.7341 22.3539 20.8085C22.4419 20.8221 22.4961 20.8357 22.4961 20.944C22.4893 21.3095 22.4893 21.6816 22.4893 22.0471C22.4961 22.0538 22.5434 24.8423 22.5434 26.1146C22.5434 26.1552 22.5434 26.2091 22.5434 26.2498C22.5366 26.3783 22.469 26.4191 22.3472 26.3852C22.0021 26.2837 21.6366 26.243 21.278 26.2227C20.7163 26.1888 20.1681 26.2699 19.6471 26.4662C17.8944 27.1159 16.8251 28.3681 16.6018 30.2225C16.3853 32.0497 17.1026 33.5047 18.6185 34.5537C18.7471 34.6417 18.8756 34.7228 18.9974 34.8243C19.0245 34.8514 19.0583 34.8787 19.0854 34.899C19.4373 35.0411 19.7892 35.1833 20.1614 35.251C21.3524 35.4878 22.469 35.3049 23.5044 34.6687C24.6954 33.931 25.3992 32.855 25.6496 31.4811C25.697 31.224 25.7037 30.9533 25.7037 30.6894V9.3646C25.7037 9.03299 25.6564 9.07347 25.988 9.07347H31.0227C31.1919 9.07347 31.1919 9.07331 31.1919 9.24927C31.1919 9.62826 31.3476 10.5148 31.3611 10.5893C32.0717 14.1829 36.2538 16.3758 37.5531 16.5721C37.905 16.6262 38.2636 16.6666 38.6223 16.6666C38.7712 16.6666 38.778 16.6668 38.778 16.8157C38.778 17.1473 38.8457 20.5854 38.8389 21.8442C38.8389 22.1284 38.7983 22.1417 38.5073 22.1485L38.5141 22.1554Z" fill="#00354D"/>
</svg>
