<svg width="50" height="50" viewBox="0 0 50 50" fill="none" xmlns="http://www.w3.org/2000/svg">
<path id="Vector" fill-rule="evenodd" clip-rule="evenodd" d="M24.793 0.0183105C11.1639 0.0183105 0.113037 11.0697 0.113037 24.6998C0.113037 38.3299 11.1639 49.3817 24.793 49.3817C38.4222 49.3817 49.4731 38.3299 49.4731 24.6998C49.4731 11.0697 38.4222 0.0183105 24.793 0.0183105ZM38.4357 19.4212C38.4493 19.6987 38.456 19.9829 38.456 20.2671C38.456 28.9298 31.8648 38.9119 19.8124 38.9119C16.1107 38.9119 12.6662 37.8291 9.76982 35.9679C10.2841 36.0289 10.8052 36.0628 11.333 36.0628C14.4054 36.0628 17.2273 35.0137 19.474 33.2609C16.6047 33.2067 14.1888 31.3118 13.3565 28.7062C13.7557 28.7807 14.1618 28.8216 14.5881 28.8216C15.1836 28.8216 15.7656 28.7401 16.3137 28.5912C13.3159 27.9889 11.0556 25.3429 11.0556 22.1689C11.0556 22.1418 11.0556 22.1079 11.0556 22.0876C11.9353 22.5749 12.9504 22.8726 14.0264 22.9065C12.2669 21.7357 11.1098 19.7256 11.1098 17.4517C11.1098 16.2538 11.4346 15.1235 11.9963 14.1557C15.231 18.1216 20.056 20.7272 25.5036 21.0047C25.3885 20.5242 25.3344 20.0234 25.3344 19.5091C25.3344 15.8951 28.2646 12.9579 31.8851 12.9579C33.7731 12.9579 35.4717 13.7565 36.6695 15.0288C38.1583 14.7378 39.5591 14.1895 40.8313 13.4383C40.3441 14.9678 39.3019 16.2539 37.9485 17.066C39.2749 16.9036 40.5403 16.5517 41.7111 16.0373C40.8313 17.3503 39.7215 18.5074 38.4425 19.4278L38.4357 19.4212Z" fill="#00354D"/>
</svg>
