<svg width="50" height="50" viewBox="0 0 50 50" fill="none" xmlns="http://www.w3.org/2000/svg">
<path id="Vector" d="M21.6038 19.7597L30.1508 24.6933L21.6038 29.627V19.7527V19.7597ZM49.5727 24.6933C49.5727 38.3234 38.5219 49.3749 24.8927 49.3749C11.2635 49.3749 0.212708 38.3234 0.212708 24.6933C0.212708 11.0632 11.2635 0.0114746 24.8927 0.0114746C38.5219 0.0114746 49.5727 11.0632 49.5727 24.6933ZM41.3438 24.6933C41.3438 24.6933 41.3438 19.34 40.6536 16.775C40.2746 15.3606 39.158 14.244 37.7436 13.865C35.1789 13.1747 24.8859 13.1747 24.8859 13.1747C24.8859 13.1747 14.593 13.1747 12.0282 13.865C10.6139 14.244 9.4973 15.3606 9.11834 16.775C8.42808 19.34 8.42811 24.6933 8.42811 24.6933C8.42811 24.6933 8.42808 30.0465 9.11834 32.6182C9.4973 34.0327 10.6071 35.1492 12.0282 35.5282C14.593 36.2185 24.8859 36.2185 24.8859 36.2185C24.8859 36.2185 35.1721 36.2185 37.7436 35.5282C39.158 35.1492 40.2746 34.0395 40.6536 32.6182C41.3438 30.0533 41.3438 24.6933 41.3438 24.6933Z" fill="#00354D"/>
</svg>
